{
    "asset" : {
        "generator" : "Khronos glTF Blender I/O v1.6.16",
        "version" : "2.0"
    },
    "scene" : 0,
    "scenes" : [
        {
            "name" : "Scene",
            "nodes" : [
                0,
                1,
                3,
                4
            ]
        }
    ],
    "nodes" : [
        {
            "name" : "Light",
            "rotation" : [
                0.16907575726509094,
                0.7558803558349609,
                -0.27217137813568115,
                0.570947527885437
            ],
            "translation" : [
                4.076245307922363,
                5.903861999511719,
                -1.0054539442062378
            ]
        },
        {
            "name" : "Camera",
            "rotation" : [
                0.4677501320838928,
                0.32799431681632996,
                -0.19227690994739532,
                0.7979092001914978
            ],
            "translation" : [
                3.0288610458374023,
                2.2961652278900146,
                3.029522180557251
            ]
        },
        {
            "mesh" : 0,
            "name" : "Icing"
        },
        {
            "children" : [
                2
            ],
            "mesh" : 1,
            "name" : "Donut",
            "translation" : [
                0,
                0.022284027189016342,
                0
            ]
        },
        {
            "mesh" : 2,
            "name" : "Plane",
            "translation" : [
                -0.013692595064640045,
                -0.0027211979031562805,
                0.0637815073132515
            ]
        }
    ],
    "meshes" : [
        {
            "name" : "Torus.001",
            "primitives" : [
                {
                    "attributes" : {
                        "POSITION" : 0,
                        "NORMAL" : 1,
                        "TEXCOORD_0" : 2
                    },
                    "indices" : 3
                }
            ]
        },
        {
            "name" : "Torus",
            "primitives" : [
                {
                    "attributes" : {
                        "POSITION" : 4,
                        "NORMAL" : 5,
                        "TEXCOORD_0" : 6
                    },
                    "indices" : 7
                }
            ]
        },
        {
            "name" : "Plane",
            "primitives" : [
                {
                    "attributes" : {
                        "POSITION" : 8,
                        "NORMAL" : 9,
                        "TEXCOORD_0" : 10
                    },
                    "indices" : 11
                }
            ]
        }
    ],
    "accessors" : [
        {
            "bufferView" : 0,
            "componentType" : 5126,
            "count" : 513,
            "max" : [
                0.07346176356077194,
                0.02840239554643631,
                0.07243981212377548
            ],
            "min" : [
                -0.07273366302251816,
                0.00990185048431158,
                -0.0756123885512352
            ],
            "type" : "VEC3"
        },
        {
            "bufferView" : 1,
            "componentType" : 5126,
            "count" : 513,
            "type" : "VEC3"
        },
        {
            "bufferView" : 2,
            "componentType" : 5126,
            "count" : 513,
            "type" : "VEC2"
        },
        {
            "bufferView" : 3,
            "componentType" : 5123,
            "count" : 2688,
            "type" : "SCALAR"
        },
        {
            "bufferView" : 4,
            "componentType" : 5126,
            "count" : 377,
            "max" : [
                0.0734984278678894,
                0.028464194387197495,
                0.07251370698213577
            ],
            "min" : [
                -0.07289016991853714,
                -0.026121987029910088,
                -0.07622916251420975
            ],
            "type" : "VEC3"
        },
        {
            "bufferView" : 5,
            "componentType" : 5126,
            "count" : 377,
            "type" : "VEC3"
        },
        {
            "bufferView" : 6,
            "componentType" : 5126,
            "count" : 377,
            "type" : "VEC2"
        },
        {
            "bufferView" : 7,
            "componentType" : 5123,
            "count" : 2016,
            "type" : "SCALAR"
        },
        {
            "bufferView" : 8,
            "componentType" : 5126,
            "count" : 4,
            "max" : [
                1,
                0,
                1
            ],
            "min" : [
                -1,
                0,
                -1
            ],
            "type" : "VEC3"
        },
        {
            "bufferView" : 9,
            "componentType" : 5126,
            "count" : 4,
            "type" : "VEC3"
        },
        {
            "bufferView" : 10,
            "componentType" : 5126,
            "count" : 4,
            "type" : "VEC2"
        },
        {
            "bufferView" : 11,
            "componentType" : 5123,
            "count" : 6,
            "type" : "SCALAR"
        }
    ],
    "bufferViews" : [
        {
            "buffer" : 0,
            "byteLength" : 6156,
            "byteOffset" : 0
        },
        {
            "buffer" : 0,
            "byteLength" : 6156,
            "byteOffset" : 6156
        },
        {
            "buffer" : 0,
            "byteLength" : 4104,
            "byteOffset" : 12312
        },
        {
            "buffer" : 0,
            "byteLength" : 5376,
            "byteOffset" : 16416
        },
        {
            "buffer" : 0,
            "byteLength" : 4524,
            "byteOffset" : 21792
        },
        {
            "buffer" : 0,
            "byteLength" : 4524,
            "byteOffset" : 26316
        },
        {
            "buffer" : 0,
            "byteLength" : 3016,
            "byteOffset" : 30840
        },
        {
            "buffer" : 0,
            "byteLength" : 4032,
            "byteOffset" : 33856
        },
        {
            "buffer" : 0,
            "byteLength" : 48,
            "byteOffset" : 37888
        },
        {
            "buffer" : 0,
            "byteLength" : 48,
            "byteOffset" : 37936
        },
        {
            "buffer" : 0,
            "byteLength" : 32,
            "byteOffset" : 37984
        },
        {
            "buffer" : 0,
            "byteLength" : 12,
            "byteOffset" : 38016
        }
    ],
    "buffers" : [
        {
            "byteLength" : 38028,
            "uri" : "data:application/octet-stream;base64,"
        }
    ]
}
